#!OML:ASF F:\VICON\USERDATA\INSTALL\rory3\rory3.ASF
:FULLY-SPECIFIED
:DEGREES
4344
root -5.86825 14.6981 -11.5766 -550.294 -49.8293 552.108
lowerback 18.8302 5.29707 -2.4781
upperback -2.0854 6.93504 3.77502
thorax -13.7721 3.54906 3.52714
lowerneck -10.2176 -6.88516 -1.49493
upperneck 16.8342 -10.2648 4.21358
head 7.13785 -4.78239 0.632337
rclavicle 4.22464e-014 1.34801e-015
rhumerus -16.2582 57.6407 -108.675
rradius 49.1252
rwrist -70.3922
rhand -11.0579 1.72281
rfingers 7.12502
rthumb 14.9647 -27.7165
lclavicle 4.22464e-014 1.34801e-015
lhumerus 25.5472 -35.0385 33.261
lradius 113.936
lwrist 12.1596
lhand 2.88027 17.0892
lfingers 7.12502
lthumb 28.3461 44.9635
rfemur -13.048 -6.7962 -3.92466
rtibia 36.0115
rfoot -28.6954 -17.017
rtoes 25.8597
lfemur -35.515 20.9852 -21.7725
ltibia 69.4928
lfoot -34.0327 7.06125
ltoes 26.2335
4345
root -5.86862 14.6957 -11.5726 -550.055 -49.6797 551.988
lowerback 18.6091 5.3314 -2.60608
upperback -2.00473 6.95574 3.82611
thorax -13.5741 3.5704 3.66741
lowerneck -10.4355 -6.87493 -1.61093
upperneck 16.7924 -10.2072 4.16907
head 7.16411 -4.75778 0.634901
rclavicle 9.04657e-014 -6.33626e-016
rhumerus -15.895 57.9323 -108.242
rradius 49.199
rwrist -70.5087
rhand -10.9805 1.61852
rfingers 7.12502
rthumb 15.0393 -27.8153
lclavicle 9.04657e-014 -6.33626e-016
lhumerus 25.4815 -34.9877 33.1077
lradius 114.211
lwrist 12.2831
lhand 2.47063 17.3065
lfingers 7.12502
lthumb 27.9546 45.2453
rfemur -13.0648 -6.45091 -4.046
rtibia 35.3322
rfoot -27.3034 -18.765
rtoes 18.0441
lfemur -35.6798 21.002 -21.8924
ltibia 69.5295
lfoot -34.1933 6.80281
ltoes 27.1325
4346
root -5.87422 14.694 -11.5698 -549.879 -49.6462 551.88
lowerback 18.6722 5.35857 -2.50113
upperback -2.11823 7.0115 3.72934
thorax -13.7215 3.58614 3.47354
lowerneck -10.2371 -6.9821 -1.72388
upperneck 16.7177 -10.3641 4.31844
head 7.1244 -4.83435 0.692953
rclavicle -1.2802e-013 5.31982e-015
rhumerus -16.001 57.7997 -108.286
rradius 49.251
rwrist -70.6199
rhand -11.0147 1.75114
rfingers 7.12502
rthumb 15.0063 -27.6851
lclavicle -1.2802e-013 5.31982e-015
lhumerus 25.4707 -35.2738 32.8368
lradius 114.393
lwrist 12.3274
lhand 2.2151 17.1866
lfingers 7.12502
lthumb 27.7103 45.1649
rfemur -12.9121 -6.11686 -4.21182
rtibia 34.642
rfoot -27.2451 -19.3108
rtoes 15.4742
lfemur -35.7614 20.9901 -22.0242
ltibia 69.5294
lfoot -34.3185 6.87104
ltoes 26.9502
4347
root -5.87918 14.6946 -11.5696 -549.697 -49.6302 551.68
lowerback 18.7681 5.32193 -2.62297
upperback -2.24329 6.93393 3.65991
thorax -13.9228 3.56034 3.47814
lowerneck -9.91945 -6.98426 -1.56735
upperneck 16.6399 -10.3878 4.26565
head 7.03312 -4.85238 0.663315
rclavicle -4.2682e-014 1.5381e-014
rhumerus -16.3806 57.9525 -108.718
rradius 49.3095
rwrist -70.8078
rhand -11.2472 1.77575
rfingers 7.12502
rthumb 14.7824 -27.6771
lclavicle -4.2682e-014 1.5381e-014
lhumerus 25.1504 -35.4348 32.8788
lradius 114.543
lwrist 12.2572
lhand 2.2336 17.119
lfingers 7.12502
lthumb 27.728 45.0944
rfemur -12.6358 -5.71917 -4.4253
rtibia 33.9287
rfoot -27.5097 -19.9937
rtoes 12.6928
lfemur -35.7331 20.9592 -22.1739
ltibia 69.5066
lfoot -34.3457 6.95922
ltoes 26.8059
4348
root -5.88287 14.694 -11.5704 -549.594 -49.5671 551.542
lowerback 18.6948 5.29691 -2.82868
upperback -2.21658 6.85579 3.67929
thorax -13.8699 3.54221 3.64675
lowerneck -9.93295 -6.92037 -1.50241
upperneck 16.6901 -10.3135 4.24562
head 7.0449 -4.81426 0.652529
rclavicle 1.84559e-014 -1.40267e-014
rhumerus -16.4128 58.2003 -108.837
rradius 49.3024
rwrist -70.797
rhand -11.1238 1.71225
rfingers 7.12502
rthumb 14.9012 -27.7318
lclavicle 1.84559e-014 -1.40267e-014
lhumerus 25.2847 -35.429 32.8588
lradius 114.547
lwrist 12.2548
lhand 2.14921 17.4278
lfingers 7.12502
lthumb 27.6473 45.4162
rfemur -12.321 -5.28672 -4.59285
rtibia 33.1373
rfoot -27.7966 -20.7
rtoes 10.4043
lfemur -35.6804 20.9862 -22.2508
ltibia 69.4853
lfoot -34.5191 6.53738
ltoes 27.8222
4349
root -5.88692 14.6923 -11.5701 -549.429 -49.4967 551.384
lowerback 18.649 5.33286 -2.87748
upperback -2.22693 6.88829 3.62266
thorax -13.8564 3.55916 3.60228
lowerneck -10.0049 -6.87746 -1.39009
upperneck 16.7165 -10.2659 4.20108
head 7.05632 -4.78628 0.622328
rclavicle 5.45338e-014 6.11263e-015
rhumerus -16.3058 58.2364 -108.742
rradius 49.3151
rwrist -70.848
rhand -11.1652 1.64026
rfingers 7.12502
rthumb 14.8614 -27.8067
lclavicle 5.45338e-014 6.11263e-015
lhumerus 25.5723 -35.5359 32.7333
lradius 114.768
lwrist 12.4191
lhand 2.05355 17.6869
lfingers 7.12502
lthumb 27.5558 45.6899
rfemur -12.0521 -4.88457 -4.79033
rtibia 32.284
rfoot -28.4406 -20.6114
rtoes 11.8994
lfemur -35.7125 21.0224 -22.3881
ltibia 69.5014
lfoot -34.6893 6.44028
ltoes 27.9342
4350
root -5.88836 14.6909 -11.5712 -549.566 -49.375 551.506
lowerback 18.7117 5.3618 -2.76614
upperback -2.21923 6.95207 3.63633
thorax -13.8785 3.57912 3.53051
lowerneck -10.0561 -6.78572 -1.24535
upperneck 16.7318 -10.142 4.08919
head 7.05291 -4.72573 0.574363
rclavicle -1.19473e-013 -1.03617e-014
rhumerus -16.246 58.2155 -108.692
rradius 49.3112
rwrist -70.7496
rhand -11.1644 1.64634
rfingers 7.12502
rthumb 14.8621 -27.8006
lclavicle -1.19473e-013 -1.03617e-014
lhumerus 24.9594 -35.5836 32.8266
lradius 115.37
lwrist 12.5593
lhand 1.95786 17.6806
lfingers 7.12502
lthumb 27.4643 45.6982
rfemur -11.6967 -4.26394 -4.73692
rtibia 31.374
rfoot -29.2427 -20.4583
rtoes 14.4301
lfemur -35.7051 21.1226 -22.2584
ltibia 69.5905
lfoot -34.5974 7.01798
ltoes 27.0344
4351
root -5.88808 14.6904 -11.5752 -549.84 -49.2918 551.807
lowerback 18.7156 5.35663 -2.63985
upperback -2.17043 6.97875 3.71311
thorax -13.821 3.58291 3.53908
lowerneck -10.075 -6.82736 -1.34576
upperneck 16.7052 -10.2054 4.22113
head 7.06206 -4.75111 0.625154
rclavicle 3.12263e-014 -1.15295e-014
rhumerus -16.1101 58.3315 -108.57
rradius 49.3372
rwrist -70.6977
rhand -11.1304 1.60891
rfingers 7.12502
rthumb 14.8949 -27.8356
lclavicle 3.12263e-014 -1.15295e-014
lhumerus 24.9159 -35.7326 32.678
lradius 115.709
lwrist 12.8219
lhand 1.45422 17.9688
lfingers 7.12502
lthumb 26.9825 46.0619
rfemur -11.2345 -3.39955 -4.52018
rtibia 30.4344
rfoot -30.2436 -20.6996
rtoes 15.9903
lfemur -35.7059 21.1392 -21.9571
ltibia 69.7365
lfoot -34.6209 6.93418
ltoes 27.3702
4352
root -5.88753 14.6868 -11.5788 -550.131 -49.2176 552.092
lowerback 18.8062 5.36016 -2.44471
upperback -2.16142 7.02794 3.73653
thorax -13.8465 3.58942 3.43419
lowerneck -9.93866 -6.95009 -1.49967
upperneck 16.6555 -10.4033 4.49402
head 7.05181 -4.83846 0.721672
rclavicle -1.62289e-014 1.49089e-016
rhumerus -16.022 58.1854 -108.555
rradius 49.2681
rwrist -70.5038
rhand -10.9739 1.59154
rfingers 7.12502
rthumb 15.0456 -27.8418
lclavicle -1.62289e-014 1.49089e-016
lhumerus 25.431 -35.8288 32.9859
lradius 115.381
lwrist 12.8028
lhand 1.65586 18.2954
lfingers 7.12502
lthumb 27.1754 46.3585
rfemur -10.7444 -2.60226 -4.32073
rtibia 29.5011
rfoot -31.1684 -21.2488
rtoes 16.4591
lfemur -35.6601 21.132 -21.6519
ltibia 69.8793
lfoot -34.8079 6.46457
ltoes 28.3325
4353
root -5.88597 14.6821 -11.5818 -550.229 -49.1475 552.181
lowerback 18.8904 5.38545 -2.3983
upperback -2.19071 7.0727 3.73152
thorax -13.9282 3.60596 3.38123
lowerneck -10.001 -6.94331 -1.32707
upperneck 16.7378 -10.4069 4.36839
head 7.07336 -4.83797 0.65083
rclavicle -7.14227e-014 1.92821e-014
rhumerus -16.0265 58.171 -108.56
rradius 49.2978
rwrist -70.474
rhand -10.9252 1.51712
rfingers 7.12502
rthumb 15.0925 -27.9127
lclavicle -7.14227e-014 1.92821e-014
lhumerus 25.1645 -35.7641 33.7456
lradius 115.193
lwrist 12.5553
lhand 2.25386 18.0928
lfingers 7.12502
lthumb 27.7473 46.0651
rfemur -10.378 -2.00648 -4.30026
rtibia 28.645
rfoot -32.1026 -21.2569
rtoes 18.3779
lfemur -35.6617 21.1679 -21.5395
ltibia 69.9703
lfoot -34.9084 6.44631
ltoes 28.3493
4354
root -5.88561 14.6824 -11.5838 -550.099 -49.0931 552.068
lowerback 18.8593 5.40985 -2.47529
upperback -2.19002 7.08272 3.67996
thorax -13.9125 3.6148 3.36497
lowerneck -10.1745 -6.89449 -1.15377
upperneck 16.7916 -10.3561 4.2912
head 7.1064 -4.80423 0.596698
rclavicle -8.42474e-014 -3.75206e-014
rhumerus -15.9229 58.2235 -108.536
rradius 49.2808
rwrist -70.4334
rhand -10.9983 1.76713
rfingers 7.12502
rthumb 15.0221 -27.6679
lclavicle -8.42474e-014 -3.75206e-014
lhumerus 24.6496 -35.7768 33.6106
lradius 115.47
lwrist 12.5788
lhand 2.11744 17.8228
lfingers 7.12502
lthumb 27.6169 45.816
rfemur -10.1957 -1.50235 -4.42693
rtibia 27.9296
rfoot -32.8805 -21.2727
rtoes 20.4052
lfemur -35.7029 21.1683 -21.632
ltibia 69.9587
lfoot -34.9537 6.50675
ltoes 28.5232
